<svg xmlns="http://www.w3.org/2000/svg" width="500" height="300">
    <rect width="100%" height="100%" fill="white"/>
    
    <!-- Entities -->
    <rect x="50" y="20" width="100" height="50" fill="lightblue" stroke="black"/>
    <text x="100" y="50" text-anchor="middle">Client</text>
    <rect x="350" y="20" width="100" height="50" fill="lightgreen" stroke="black"/>
    <text x="400" y="50" text-anchor="middle">Server</text>
    
    <!-- Lines -->
    <line x1="100" y1="70" x2="100" y2="280" stroke="gray" stroke-dasharray="5,5"/>
    <line x1="400" y1="70" x2="400" y2="280" stroke="gray" stroke-dasharray="5,5"/>
    
    <!-- Arrows -->
    <line x1="100" y1="120" x2="380" y2="150" stroke="black" stroke-width="2"/>
    <polygon points="380,150 370,145 370,155" fill="black"/>
    <text x="240" y="125" text-anchor="middle">SYN (seq=x)</text>
    
    <line x1="400" y1="180" x2="120" y2="210" stroke="black" stroke-width="2"/>
    <polygon points="120,210 130,205 130,215" fill="black"/>
    <text x="260" y="185" text-anchor="middle">SYN-ACK (seq=y, ack=x+1)</text>
    
    <line x1="100" y1="240" x2="380" y2="270" stroke="black" stroke-width="2"/>
    <polygon points="380,270 370,265 370,275" fill="black"/>
    <text x="240" y="245" text-anchor="middle">ACK (ack=y+1)</text>
</svg>